<?xml version="1.0" standalone="no"?><!DOCTYPE svg PUBLIC "-//W3C//DTD SVG 1.1//EN" "http://www.w3.org/Graphics/SVG/1.1/DTD/svg11.dtd"><svg t="1517802358711" class="icon" style="" viewBox="0 0 1024 1024" version="1.1" xmlns="http://www.w3.org/2000/svg" p-id="20974" xmlns:xlink="http://www.w3.org/1999/xlink" width="200" height="200"><defs><style type="text/css"></style></defs><path d="M624.710015 341.107865 624.710015 117.522624 401.122727 117.522624l0 223.585241L624.710015 341.107865M680.564114 396.96401 345.269651 396.96401 345.269651 61.667501 680.564114 61.667501 680.564114 396.96401 680.564114 396.96401 680.564114 396.96401z" p-id="20975"></path><path d="M540.871561 564.68492 484.962204 564.68492 484.962204 396.951731 540.871561 396.951731 540.871561 564.68492 540.871561 564.68492Z" p-id="20976"></path><path d="M792.388968 564.68492 233.443773 564.68492 233.443773 508.773516 792.388968 508.773516 792.388968 564.68492 792.388968 564.68492Z" p-id="20977"></path><path d="M289.246707 620.59837 233.335303 620.59837 233.335303 564.68492 289.246707 564.68492 289.246707 620.59837 289.246707 620.59837Z" p-id="20978"></path><path d="M792.280498 620.59837 736.370117 620.59837 736.370117 564.68492 792.280498 564.68492 792.280498 620.59837 792.280498 620.59837Z" p-id="20979"></path><path d="M902.022924 900.04078 902.022924 676.429956 678.412101 676.429956l0 223.610824L902.022924 900.04078M343.122755 900.04078 343.122755 676.429956 119.510908 676.429956l0 223.610824L343.122755 900.04078M957.905676 955.923532 622.531396 955.923532 622.531396 620.549252l335.375304 0L957.906699 955.923532 957.905676 955.923532 957.905676 955.923532zM399.00346 955.923532 63.628156 955.923532 63.628156 620.549252l335.375304 0L399.00346 955.923532 399.00346 955.923532 399.00346 955.923532z" p-id="20980"></path></svg>