<?xml version="1.0" standalone="no"?><!DOCTYPE svg PUBLIC "-//W3C//DTD SVG 1.1//EN" "http://www.w3.org/Graphics/SVG/1.1/DTD/svg11.dtd"><svg t="1517801426135" class="icon" style="" viewBox="0 0 1025 1024" version="1.1" xmlns="http://www.w3.org/2000/svg" p-id="13235" xmlns:xlink="http://www.w3.org/1999/xlink" width="200.1953125" height="200"><defs><style type="text/css"></style></defs><path d="M1012.087 374.749 540.679 42.933c-3.645-3.672-7.82-6.507-12.21-8.437-13.937-8-32.955-2.95-44.3 11.952L17.61 375.857c-14.472 10.22-16.695 32.18-4.957 49.052 11.742 16.875 32.987 22.27 47.46 12.06l32.527-22.97 0 543.479c0 20.465 16.585 37.04 37.042 37.04 20.455 0 37.042-16.585 37.042-37.04L166.724 361.689l348.214-245.847 355.499 250.229 0 591.406c0 20.465 16.585 37.04 37.055 37.04 20.45 0 37.035-16.585 37.035-37.04L944.527 418.224l24.975 17.58c14.5 10.212 35.795 4.815 47.55-12.037C1028.822 406.907 1026.597 384.964 1012.087 374.749L1012.087 374.749zM351.924 403.844l-80.147 0c-30.71 0-37.072 6.362-37.072 37.07l0 81.265c0 30.705 6.362 37.065 37.072 37.065l80.147 0c30.705 0 37.07-6.36 37.07-37.065l0-81.265C388.994 410.207 382.634 403.844 351.924 403.844L351.924 403.844zM351.924 602.699l-80.147 0c-30.71 0-37.072 6.355-37.072 37.065l0 81.26c0 30.71 6.362 37.065 37.072 37.065l80.147 0c30.705 0 37.07-6.355 37.07-37.065l0-81.26C388.994 609.054 382.634 602.699 351.924 602.699L351.924 602.699zM351.924 801.808l-80.147 0c-30.71 0-37.072 6.36-37.072 37.07l0 81.255c0 30.715 6.362 37.065 37.072 37.065l80.147 0c30.705 0 37.07-6.36 37.07-37.065l0-81.255C388.994 808.168 382.634 801.808 351.924 801.808L351.924 801.808zM561.704 801.808l-80.135 0c-30.715 0-37.075 6.36-37.075 37.07l0 81.255c0 30.715 6.36 37.065 37.075 37.065l80.135 0c30.72 0 37.075-6.36 37.075-37.065l0-81.255C598.783 808.168 592.423 801.808 561.704 801.808L561.704 801.808zM771.768 801.808l-80.41 0c-30.72 0-37.075 6.36-37.075 37.07l0 81.255c0 30.715 6.355 37.065 37.075 37.065l80.41 0c30.71 0 37.065-6.36 37.065-37.065l0-81.255C808.833 808.168 802.478 801.808 771.768 801.808L771.768 801.808zM561.704 602.699l-80.135 0c-30.715 0-37.075 6.355-37.075 37.065l0 81.26c0 30.71 6.36 37.065 37.075 37.065l80.135 0c30.72 0 37.075-6.355 37.075-37.065l0-81.26C598.783 609.054 592.423 602.699 561.704 602.699L561.704 602.699z" p-id="13236"></path></svg>