<?xml version="1.0" standalone="no"?><!DOCTYPE svg PUBLIC "-//W3C//DTD SVG 1.1//EN" "http://www.w3.org/Graphics/SVG/1.1/DTD/svg11.dtd"><svg t="1517801455306" class="icon" style="" viewBox="0 0 1024 1024" version="1.1" xmlns="http://www.w3.org/2000/svg" p-id="13349" xmlns:xlink="http://www.w3.org/1999/xlink" width="200" height="200"><defs><style type="text/css"></style></defs><path d="M512.005103 0C229.242574 0 0.012757 229.224714 0.012757 511.992346c0 282.767632 229.229817 512.007654 511.992346 512.007654 282.767632 0 511.98214-229.245125 511.98214-512.007654C1023.987243 229.229817 794.767632 0 512.005103 0zM474.622523 381.428863l0-149.509909 74.754954 0 0 149.509909 74.754954 0-112.132432 149.509909-112.132432-149.509909L474.622523 381.428863zM811.024921 717.581228c0 41.265755-33.45348 74.754954-74.754954 74.754954L287.730034 792.336182c-41.301475 0-74.754954-33.489199-74.754954-74.754954l0-149.509909 74.754954-336.254419 0-0.147979 74.754954 0 0 37.377477-44.664172 0L253.791795 568.066216l146.070671 0 74.754954 74.754954 74.754954 0 74.754954-74.754954 146.075774 0-64.029022-299.024921-44.664172 0 0-37.377477 74.754954 0 0 0.147979 74.754954 336.254419L811.019818 717.581228z" p-id="13350"></path></svg>