<?xml version="1.0" standalone="no"?><!DOCTYPE svg PUBLIC "-//W3C//DTD SVG 1.1//EN" "http://www.w3.org/Graphics/SVG/1.1/DTD/svg11.dtd"><svg t="1517801375470" class="icon" style="" viewBox="0 0 1024 1024" version="1.1" xmlns="http://www.w3.org/2000/svg" p-id="12779" xmlns:xlink="http://www.w3.org/1999/xlink" width="200" height="200"><defs><style type="text/css"></style></defs><path d="M480 358.4l-80-80c-12.8-12.8-12.8-32 0-44.8 12.8-12.8 32-12.8 44.8 0l67.2 67.2 67.2-67.2c12.8-12.8 32-12.8 44.8 0 12.8 12.8 12.8 32 0 44.8l-80 80v25.6h64c19.2 0 32 12.8 32 32s-12.8 32-32 32h-64v64c0 19.2-12.8 32-32 32s-32-12.8-32-32v-64h-64c-19.2 0-32-12.8-32-32s12.8-32 32-32h64v-25.6z m-128 249.6h320c19.2 0 32 12.8 32 32s-12.8 32-32 32h-320c-19.2 0-32-12.8-32-32s12.8-32 32-32z m0 128h320c19.2 0 32 12.8 32 32s-12.8 32-32 32h-320c-19.2 0-32-12.8-32-32s12.8-32 32-32z m-96-608c-19.2 0-32 12.8-32 32v704c0 19.2 12.8 32 32 32h512c19.2 0 32-12.8 32-32v-704c0-19.2-12.8-32-32-32h-512z m0-64h512c54.4 0 96 41.6 96 96v704c0 54.4-41.6 96-96 96h-512c-54.4 0-96-41.6-96-96v-704c0-54.4 41.6-96 96-96z" p-id="12780"></path></svg>