<?xml version="1.0" standalone="no"?><!DOCTYPE svg PUBLIC "-//W3C//DTD SVG 1.1//EN" "http://www.w3.org/Graphics/SVG/1.1/DTD/svg11.dtd"><svg t="1517802299195" class="icon" style="" viewBox="0 0 1024 1024" version="1.1" xmlns="http://www.w3.org/2000/svg" p-id="20172" xmlns:xlink="http://www.w3.org/1999/xlink" width="200" height="200"><defs><style type="text/css"></style></defs><path d="M401.07 543H143.52A79.51 79.51 0 0 0 64 622.5V880a79.51 79.51 0 0 0 79.51 79.51h257.56A79.51 79.51 0 0 0 480.58 880V622.5a79.51 79.51 0 0 0-79.51-79.5z m22.21 323A36.31 36.31 0 0 1 387 902.25H157.63a36.31 36.31 0 0 1-36.31-36.31V636.6a36.31 36.31 0 0 1 36.31-36.31H387a36.31 36.31 0 0 1 36.31 36.31zM401.07 63.95H143.52A79.51 79.51 0 0 0 64 143.46V401a79.51 79.51 0 0 0 79.51 79.51h257.56A79.51 79.51 0 0 0 480.58 401V143.46a79.51 79.51 0 0 0-79.51-79.51z m22.21 323A36.31 36.31 0 0 1 387 423.21H157.63a36.31 36.31 0 0 1-36.31-36.31V157.56a36.31 36.31 0 0 1 36.31-36.31H387a36.31 36.31 0 0 1 36.31 36.31zM880.2 63.95H622.65a79.51 79.51 0 0 0-79.51 79.51V401a79.51 79.51 0 0 0 79.51 79.51H880.2A79.51 79.51 0 0 0 959.71 401V143.46a79.51 79.51 0 0 0-79.51-79.51z m22.21 323a36.31 36.31 0 0 1-36.31 36.31H636.76a36.31 36.31 0 0 1-36.31-36.31V157.56a36.31 36.31 0 0 1 36.31-36.31h229.33a36.31 36.31 0 0 1 36.31 36.31zM663.12 826.52a6.58 6.58 0 0 0-1.4 3.82 5.48 5.48 0 0 0 2.61 4.76 18.83 18.83 0 0 0 4.29 2.33q2.61 0 6.9-2.24a63.1 63.1 0 0 0 9.7-6.53 51.84 51.84 0 0 0 14-17.72q17.53 25.36 64.71 25.36h70.31q6.9 0 6.9-7.09t-6.9-7.09h-74q-23.5 0-38-8.3t-17.53-22.66V733a54.73 54.73 0 0 0-0.47-8 10.09 10.09 0 0 0-1.77-4.66 6 6 0 0 0-3.73-2.14 35 35 0 0 0-6.34-0.47h-23.78q-3.92 0-5.31 2.05a10.59 10.59 0 0 0-1.4 6q0 6.34 6.71 6.34h20.14c1.12 0 1.68 0.81 1.68 2.43V793q0 17.34-22.38 29.65h0.19a13.81 13.81 0 0 0-5.13 3.87zM691 673.69q-3.73-3-6.34-4.85-4.85-3.73-8-3.73-3.73 0-5 2.52a29.41 29.41 0 0 0-2.05 4.94 6.24 6.24 0 0 0 1.31 3.54 11.8 11.8 0 0 0 3.92 3.36 39.23 39.23 0 0 1 4.76 3.17q2.7 2.05 6.44 5.22 3.73 2.8 6.71 5.5t5.41 5.13q5.22 5.22 8.21 5.22a7 7 0 0 0 5.13-2.42 7.43 7.43 0 0 0 2.33-5.22 8.06 8.06 0 0 0-2.24-5.22q-1.87-2.05-12.12-10.26h0.19z" p-id="20173"></path><path d="M822.95 745.21q3.45-3.64 3.45-12.59v-47.74q0-8.76-3.36-12.22t-11.94-3.45h-74.41q-8.58 0-11.75 3.26t-3.17 12.4v113.59q0 7.46 2.05 11a9.16 9.16 0 0 0 8.39 4.66q4.66 0 17.16-4.1 5.51-1.89 11-3.82 5-1.77 9.14-3.64a62.08 62.08 0 0 0 7-3.64 32.41 32.41 0 0 0 3.92-2.8 6.21 6.21 0 0 0 1.77-2.12 5.5 5.5 0 0 0 0.37-2.05 8.32 8.32 0 0 0-1.49-4.1h0.19a5 5 0 0 0-4.66-2.52q-3.36-0.09-9.7 3.08a51.92 51.92 0 0 1-7.37 3.26q-5.09 1.9-10.16 3.82-4.28 1.38-8.58 2.7a26.9 26.9 0 0 1-4.66 1.21q-0.38 0-0.37-2.42v-48.13h10.63q15.11 13.43 28 25.18t22.9 21.07q5.43 5.06 10.72 10.26t10.72 10.26h-0.19a7.06 7.06 0 0 0 4.95 2.38 7.64 7.64 0 0 0 4.94-2.05 6.71 6.71 0 0 0 2.61-5.22 7.41 7.41 0 0 0-0.84-3.08 12.55 12.55 0 0 0-2.52-3.45q-0.94-0.93-5.78-5.31t-13.24-12q-1.38-1.18-2.71-2.42t-2.89-2.8q5.22-3.17 9.42-6.15t7.55-5.78q9.51-8 9.51-12.87a7.19 7.19 0 0 0-0.93-2.8 7.41 7.41 0 0 0-2.7-3 6 6 0 0 0-4.38-0.65q-2.62 0.47-6 3.82a125 125 0 0 1-10.72 9.51 129.63 129.63 0 0 1-11.82 8.41q-6.27-5.72-12.68-11.28t-13.61-12h44.39q8.4-0.03 11.85-3.67z m-87.19-58.84a5.74 5.74 0 0 1 0.37-2.42c0.25-0.5 0.87-0.75 1.86-0.75h72q2.61 0 2.61 3.17v15.85h-76.84z m0 48.49v-19h76.84v15.48q0 3.55-2.61 3.54z" p-id="20174"></path><path d="M751.43 547.49a203.88 203.88 0 0 0-187.27 284.27 24.24 24.24 0 1 0 44.54-19.17 154.23 154.23 0 0 1-12.57-61.32c0-85.63 69.67-155.27 155.3-155.27s155.29 69.66 155.29 155.29-69.67 155.27-155.29 155.27A154.56 154.56 0 0 1 694.9 896a24.24 24.24 0 0 0-17.66 45.16 203.8 203.8 0 1 0 74.18-393.63z" p-id="20175"></path></svg>