<?xml version="1.0" standalone="no"?><!DOCTYPE svg PUBLIC "-//W3C//DTD SVG 1.1//EN" "http://www.w3.org/Graphics/SVG/1.1/DTD/svg11.dtd"><svg t="1517801004884" class="icon" style="" viewBox="0 0 1024 1024" version="1.1" xmlns="http://www.w3.org/2000/svg" p-id="10101" xmlns:xlink="http://www.w3.org/1999/xlink" width="200" height="200"><defs><style type="text/css"></style></defs><path d="M675.84 839.68c-59.392 0-114.688-14.336-163.84-43.008-49.152 28.672-104.448 43.008-163.84 43.008-180.224 0-327.68-147.456-327.68-327.68s147.456-327.68 327.68-327.68c59.392 0 114.688 14.336 163.84 43.008 49.152-28.672 104.448-43.008 163.84-43.008 180.224 0 327.68 147.456 327.68 327.68s-147.456 327.68-327.68 327.68z m-124.928-69.632c38.912 18.432 81.92 28.672 124.928 28.672 157.696 0 286.72-129.024 286.72-286.72s-129.024-286.72-286.72-286.72c-45.056 0-88.064 10.24-124.928 28.672 79.872 63.488 124.928 157.696 124.928 258.048 0 100.352-47.104 194.56-124.928 258.048zM348.16 225.28c-157.696 0-286.72 129.024-286.72 286.72s129.024 286.72 286.72 286.72c45.056 0 88.064-10.24 124.928-28.672-79.872-63.488-124.928-157.696-124.928-258.048 0-100.352 47.104-194.56 124.928-258.048-36.864-18.432-79.872-28.672-124.928-28.672z m163.84 51.2c-77.824 55.296-122.88 141.312-122.88 235.52s45.056 180.224 122.88 235.52c77.824-55.296 122.88-141.312 122.88-235.52s-45.056-180.224-122.88-235.52z" p-id="10102"></path></svg>