<?xml version="1.0" standalone="no"?><!DOCTYPE svg PUBLIC "-//W3C//DTD SVG 1.1//EN" "http://www.w3.org/Graphics/SVG/1.1/DTD/svg11.dtd"><svg t="1517801603129" class="icon" style="" viewBox="0 0 1024 1024" version="1.1" xmlns="http://www.w3.org/2000/svg" p-id="14187" xmlns:xlink="http://www.w3.org/1999/xlink" width="200" height="200"><defs><style type="text/css"></style></defs><path d="M831.733557 62.688761 132.081713 62.688761c-37.922704 0-68.971861 31.05018-68.971861 68.971861l0 758.696612c0 37.919634 31.049157 68.970838 68.971861 68.970838l699.651844 0c37.921681 0 63.342654-31.052227 63.342654-68.970838L895.07621 131.661645C895.07621 93.739964 869.655238 62.688761 831.733557 62.688761zM447.777815 890.357234 127.067512 890.357234 127.067512 255.587096l320.710302 0L447.777815 890.357234zM831.733557 890.357234 511.636215 890.357234 511.636215 255.587096l320.097342 0L831.733557 890.357234zM831.733557 192.140065 127.067512 192.140065 127.067512 131.661645l704.666044 0L831.733557 192.140065z" p-id="14188"></path><path d="M319.24851 447.870424l64.878636 0 0 191.465706-64.878636 0 0-191.465706Z" p-id="14189"></path><path d="M574.863235 447.870424l64.878636 0 0 191.465706-64.878636 0 0-191.465706Z" p-id="14190"></path></svg>