<?xml version="1.0" standalone="no"?><!DOCTYPE svg PUBLIC "-//W3C//DTD SVG 1.1//EN" "http://www.w3.org/Graphics/SVG/1.1/DTD/svg11.dtd"><svg t="1517801504274" class="icon" style="" viewBox="0 0 1024 1024" version="1.1" xmlns="http://www.w3.org/2000/svg" p-id="13463" xmlns:xlink="http://www.w3.org/1999/xlink" width="200" height="200"><defs><style type="text/css"></style></defs><path d="M375.254569 770.912841c0 47.535643-38.524408 86.059028-86.060051 86.059028s-86.060051-38.523385-86.060051-86.059028c0-47.536666 38.523385-86.060051 86.060051-86.060051C336.730161 684.850743 375.254569 723.374128 375.254569 770.912841L375.254569 770.912841z" p-id="13464"></path><path d="M857.189833 770.912841c0 47.535643-38.523385 86.059028-86.059028 86.059028-47.536666 0-86.060051-38.523385-86.060051-86.059028 0-47.536666 38.523385-86.060051 86.060051-86.060051C818.666448 684.850743 857.189833 723.374128 857.189833 770.912841L857.189833 770.912841z" p-id="13465"></path><path d="M934.107667 477.635331l-76.917834-137.024793c-15.731286-18.959817-26.354228-34.424021-51.635007-34.424021L685.069731 306.186518 685.069731 202.914456c0-18.959817-15.46318-34.422997-34.424021-34.422997l-550.784328 0c-18.960841 0-34.424021 15.46318-34.424021 34.422997l0 516.360308c0 18.960841 15.46318 34.425044 34.424021 34.425044l68.645426 0c8.441253-59.302641 59.068304-105.220437 120.68771-105.220437s112.246457 45.917796 120.686686 105.220437l240.560868-0.034792c8.471952-59.298548 59.100026-105.185644 120.688733-105.185644 61.619406 0 112.245434 45.917796 120.686686 105.220437l34.221406 0c18.959817 0 34.424021-15.46318 34.424021-34.425044 0 0 0-139.509381 0-172.120103C960.461895 514.544963 934.107667 477.635331 934.107667 477.635331L934.107667 477.635331zM719.494775 547.154661l0-172.120103 84.209914 0c5.54632 0 13.246699 8.135284 13.246699 8.135284l72.476685 134.738727c6.4192 9.44614 13.379729 20.641109 13.379729 29.246091L719.494775 547.154661 719.494775 547.154661z" p-id="13466"></path></svg>