<?xml version="1.0" standalone="no"?><!DOCTYPE svg PUBLIC "-//W3C//DTD SVG 1.1//EN" "http://www.w3.org/Graphics/SVG/1.1/DTD/svg11.dtd"><svg t="1517801826510" class="icon" style="" viewBox="0 0 1024 1024" version="1.1" xmlns="http://www.w3.org/2000/svg" p-id="17021" xmlns:xlink="http://www.w3.org/1999/xlink" width="200" height="200"><defs><style type="text/css"></style></defs><path d="M643.355732 945.273161a39.36342 39.36342 0 0 1-0.078727-78.72684L911.341893 865.995233c18.500807 0 33.38018-14.170831 33.38018-31.490735V110.217575c0-17.398632-14.879373-31.490736-33.301453-31.490736H112.028292A32.435458 32.435458 0 0 0 78.726839 110.217575v724.286923c0 17.319905 14.879373 31.490736 33.301453 31.490735l285.46352 0.551088a39.36342 39.36342 0 0 1-0.078727 78.72684h-0.078727L111.949566 944.722073A111.241024 111.241024 0 0 1 0 834.504498V110.217575C0 49.440455 50.227724 0 112.028292 0h799.392328C973.142462 0 1023.448912 49.440455 1023.448912 110.217575v724.286923c0 60.77712-50.30645 110.217575-112.028292 110.217575l-268.064888 0.551088z" fill="#999999" p-id="17022"></path><path d="M512.196817 1024a38.969786 38.969786 0 0 1-22.279695-6.927962l-114.783732-78.726839a39.284693 39.284693 0 1 1 44.559391-64.870916l93.133851 63.926194 99.353271-64.477282a39.678327 39.678327 0 0 1 54.478973 11.572846 39.520873 39.520873 0 0 1-11.572845 54.478972l-121.475514 78.72684a39.678327 39.678327 0 0 1-21.4137 6.298147zM275.543938 472.361036a39.36342 39.36342 0 1 0 0 78.72684 39.36342 39.36342 0 0 0 0-78.72684zM747.904974 472.361036a39.36342 39.36342 0 1 0 0 78.72684 39.36342 39.36342 0 0 0 0-78.72684zM511.724456 472.361036a39.36342 39.36342 0 1 0 0 78.72684 39.36342 39.36342 0 0 0 0-78.72684z" fill="#999999" p-id="17023"></path></svg>