<?xml version="1.0" standalone="no"?><!DOCTYPE svg PUBLIC "-//W3C//DTD SVG 1.1//EN" "http://www.w3.org/Graphics/SVG/1.1/DTD/svg11.dtd"><svg t="1517802649462" class="icon" style="" viewBox="0 0 1024 1024" version="1.1" xmlns="http://www.w3.org/2000/svg" p-id="22270" xmlns:xlink="http://www.w3.org/1999/xlink" width="200" height="200"><defs><style type="text/css"></style></defs><path d="M614.9 11.2 409.1 11.2c-16.7 0-30.2 13.6-30.2 30.2l0 941.2c0 16.7 13.6 30.2 30.2 30.2l205.9 0c16.7 0 30.2-18.3 30.2-30.2L645.2 41.4C645.2 24.8 631.6 11.2 614.9 11.2zM584.7 90.5l0 843.1c0 11.8-7 18.8-18.8 18.8L458.1 952.4c-11.8 0-18.8-7-18.8-18.8L439.3 90.5c0-11.8 7-18.8 18.8-18.8l107.8 0C577.7 71.6 584.7 78.7 584.7 90.5z" p-id="22271"></path><path d="M953.2 584.7 747.3 584.7c-16.7 0-30.2 13.6-30.2 30.2l0 367.6c0 16.7 13.6 30.2 30.2 30.2l205.9 0c16.6 0 30.2-19.1 30.2-25.3L983.4 619.8C983.4 599.5 970.7 584.7 953.2 584.7zM923 664l0 269.5c0 11.8-7 18.8-18.8 18.8L796.4 952.3c-11.8 0-18.8-7-18.8-18.8L777.6 664c0-11.8 7-18.9 18.8-18.9l107.8 0C915.9 645.2 923 652.2 923 664z" p-id="22272"></path><path d="M276.7 275.9 70.8 275.9c-16.7 0-30.2 13.6-30.2 30.2l0 681.2c0 15.5 11.9 25.5 30.2 25.5l205.9 0c16.7 0 30.2-13.6 30.2-30.2L306.9 306.1C306.9 289.5 293.4 275.9 276.7 275.9zM246.5 355.2l0 578.4c0 11.8-7 18.8-18.8 18.8L119.9 952.4c-11.8 0-18.8-7-18.8-18.8L101.1 355.2c0-11.8 12.1-18.8 23.7-18.8l102.9 0C239.4 336.3 246.5 343.4 246.5 355.2z" p-id="22273"></path></svg>