<?xml version="1.0" standalone="no"?><!DOCTYPE svg PUBLIC "-//W3C//DTD SVG 1.1//EN" "http://www.w3.org/Graphics/SVG/1.1/DTD/svg11.dtd"><svg t="1517800403264" class="icon" style="" viewBox="0 0 1024 1024" version="1.1" xmlns="http://www.w3.org/2000/svg" p-id="6092" xmlns:xlink="http://www.w3.org/1999/xlink" width="200" height="200"><defs><style type="text/css"></style></defs><path d="M107.498 251.878l222.891 0c6.628-15.148 14.496-29.622 23.275-43.466L107.498 208.412c-11.997 0-21.733 9.737-21.733 21.733S95.502 251.877 107.498 251.878L107.498 251.878zM107.498 577.867l261.249 0c-10.344-13.734-19.777-28.166-27.861-43.465L107.498 534.402c-11.997 0-21.733 9.715-21.733 21.732C85.765 568.154 95.502 577.867 107.498 577.867zM802.946 860.395 107.498 860.395c-11.997 0-21.733 9.715-21.733 21.732s9.736 21.732 21.733 21.732l695.447 0c12.019 0 21.732-9.715 21.732-21.732S814.964 860.395 802.946 860.395zM930.931 707.723l-129.81-129.809c54.311-47.793 88.757-117.619 88.757-195.64 0-144.023-116.771-260.793-260.792-260.793-144.023 0-260.794 116.771-260.794 260.793s116.771 260.794 260.794 260.794c50.223 0 96.928-14.432 136.721-39.012l134.395 134.396c8.52 8.518 22.256 8.518 30.731 0 8.477-8.477 8.477-22.256 0-30.73L930.931 707.722zM629.085 599.604c-120.031 0-217.329-97.322-217.329-217.33 0-120.03 97.298-217.328 217.329-217.328 119.984 0 217.328 97.298 217.328 217.328C846.413 502.282 749.071 599.604 629.085 599.604L629.085 599.604z" p-id="6093"></path></svg>