<?xml version="1.0" standalone="no"?><!DOCTYPE svg PUBLIC "-//W3C//DTD SVG 1.1//EN" "http://www.w3.org/Graphics/SVG/1.1/DTD/svg11.dtd"><svg t="1517800125605" class="icon" style="" viewBox="0 0 1025 1024" version="1.1" xmlns="http://www.w3.org/2000/svg" p-id="3040" xmlns:xlink="http://www.w3.org/1999/xlink" width="200.1953125" height="200"><defs><style type="text/css"></style></defs><path d="M923.494 674.168l0 220.649c0 33.32-26.465 60.34-58.455 60.34L165.781 955.157c-32.12 0-58.45-26.98-58.45-60.34L107.331 674.168c0-15.8-12.745-28.62-28.455-28.62-15.72 0-28.455 12.82-28.455 28.62l0 220.649c0 64.73 51.57 117.56 115.36 117.56l699.258 0c63.615 0 115.36-52.84 115.36-117.56L980.399 674.168c0-15.8-12.735-28.62-28.45-28.62S923.494 658.368 923.494 674.168L923.494 674.168 923.494 674.168zM63.676 402.674 63.676 125.577c0-23.582 19.18-42.747 42.95-42.747l817.573 0c23.675 0 42.935 19.297 42.935 42.747l0 277.097c0 15.8 12.75 28.61 28.47 28.61 15.715 0 28.455-12.81 28.455-28.61L1024.059 125.577c0-55.105-44.81-99.977-99.86-99.977L106.626 25.6c-55.12 0-99.86 44.71-99.86 99.977l0 277.097c0 15.8 12.74 28.61 28.455 28.61C50.941 431.284 63.676 418.477 63.676 402.674L63.676 402.674 63.676 402.674zM677.829 374.944c-2.26-0.58-4.625-0.882-7.065-0.882-15.705 0-28.455 12.807-28.455 28.612 0 72.545-56.965 131.095-126.9 131.095-69.94 0-126.9-58.547-126.9-131.095 0-15.805-12.745-28.612-28.45-28.612-2.43 0-4.81 0.302-7.065 0.882-2.26-0.58-4.625-0.882-7.06-0.882-15.72 0-28.455 12.807-28.455 28.612 0 72.545-56.955 131.095-126.9 131.095S63.676 475.221 63.676 402.674c0-15.805-12.735-28.612-28.455-28.612-15.715 0-28.455 12.807-28.455 28.612 0 103.87 82.155 188.314 183.815 188.314 70.46 0 131.56-40.58 162.42-100.065l0 0c30.855 59.485 91.945 100.065 162.415 100.065 70.465 0 131.56-40.58 162.42-100.065 30.855 59.485 91.94 100.065 162.415 100.065 101.665 0 183.81-84.447 183.81-188.314 0-15.805-12.74-28.612-28.45-28.612-15.72 0-28.47 12.807-28.47 28.612 0 72.545-56.95 131.095-126.89 131.095-69.935 0-126.9-58.547-126.9-131.095 0-15.805-12.735-28.612-28.46-28.612C682.444 374.064 680.084 374.364 677.829 374.944L677.829 374.944z" p-id="3041"></path></svg>