<?xml version="1.0" standalone="no"?><!DOCTYPE svg PUBLIC "-//W3C//DTD SVG 1.1//EN" "http://www.w3.org/Graphics/SVG/1.1/DTD/svg11.dtd"><svg t="1517799758206" class="icon" style="" viewBox="0 0 1024 1024" version="1.1" xmlns="http://www.w3.org/2000/svg" p-id="1085" xmlns:xlink="http://www.w3.org/1999/xlink" width="200" height="200"><defs><style type="text/css"></style></defs><path d="M648.732 794.489c0-10.648-7.679-19.268-17.136-19.268h-239.881c-9.456 0-17.135 8.619-17.135 19.268v77.064h-171.345v57.792h616.822v-57.792h-171.326v-77.064zM896.986 92.333h-770.659c-31.928 0-57.797 25.851-57.797 57.779v539.455c0 31.909 25.868 57.796 57.797 57.796h770.659c31.929 0 57.798-25.887 57.798-57.796v-539.455c0-31.928-25.868-57.779-57.798-57.779v0zM896.986 670.265c0 10.629-8.638 19.263-19.266 19.263h-732.127c-10.647 0-19.262-8.633-19.262-19.263v-500.906c0-10.652 8.615-19.267 19.262-19.267h732.126c10.627 0 19.266 8.616 19.266 19.267v500.906h0.001zM699.617 633.403h104.232v-303.464h-104.232v303.464zM532.845 633.403h104.233v-396.838h-104.233v396.838zM220.148 633.403h104.233v-116.718h-104.233v116.718zM366.072 633.403h104.232v-210.113h-104.232v210.113zM366.072 633.403z" p-id="1086"></path></svg>