<?xml version="1.0" standalone="no"?><!DOCTYPE svg PUBLIC "-//W3C//DTD SVG 1.1//EN" "http://www.w3.org/Graphics/SVG/1.1/DTD/svg11.dtd"><svg t="1517800518209" class="icon" style="" viewBox="0 0 1024 1024" version="1.1" xmlns="http://www.w3.org/2000/svg" p-id="7918" xmlns:xlink="http://www.w3.org/1999/xlink" width="200" height="200"><defs><style type="text/css"></style></defs><path d="M800 896l-576 0C206.336 896 192 910.272 192 928 192 945.6 206.336 960 224 960l576 0c17.664 0 32-14.4 32-32C832 910.272 817.664 896 800 896zM896 64 128 64C57.344 64 0 121.28 0 192l0 512c0 70.656 57.344 128 128 128l768 0c70.656 0 128-57.344 128-128L1024 192C1024 121.28 966.656 64 896 64zM960 704c0 35.392-28.608 64-64 64L128 768c-35.392 0-64-28.608-64-64L64 192c0-35.392 28.608-64 64-64l768 0c35.392 0 64 28.608 64 64L960 704zM888.896 268.608C883.008 261.12 874.24 256 864 256l-4.352 0c-2.112 0-3.968-0.512-6.08 0L672 256C654.336 256 640 270.272 640 288 640 305.6 654.336 320 672 320l109.696 0L541.248 561.856 372.672 393.344c-0.256-0.384-0.32-0.768-0.64-1.024s-0.64-0.384-0.96-0.64L370.624 391.232c-9.088-9.152-22.4-11.264-33.536-6.528C332.608 386.368 328.32 388.736 324.736 392.384L137.728 581.12c-13.056 13.12-13.056 34.496 0 47.616 13.12 13.12 34.304 13.12 47.36 0l167.36-169.024 170.944 171.008c12.032 12.032 31.36 12.032 43.392 0C566.976 630.656 567.04 630.4 567.168 630.272c0.64-0.64 1.408-0.768 2.048-1.344L832 364.608 832 480C832 497.6 846.336 512 864 512S896 497.6 896 480l0-192c0-6.4-2.368-12.032-5.568-17.024C889.856 270.144 889.472 269.376 888.896 268.608z" p-id="7919"></path></svg>