<?xml version="1.0" standalone="no"?><!DOCTYPE svg PUBLIC "-//W3C//DTD SVG 1.1//EN" "http://www.w3.org/Graphics/SVG/1.1/DTD/svg11.dtd"><svg t="1517800469245" class="icon" style="" viewBox="0 0 1024 1024" version="1.1" xmlns="http://www.w3.org/2000/svg" p-id="7687" xmlns:xlink="http://www.w3.org/1999/xlink" width="200" height="200"><defs><style type="text/css"></style></defs><path d="M360.32 732.16 360.32 584.64 360.32 480.384c0-31.04-25.216-56.192-56.256-56.192L232.64 424.192c-30.976 0-56.192 25.152-56.192 56.192l0 104.256 0 147.584 0 99.584L360.32 831.808 360.32 732.16z" p-id="7688"></path><path d="M603.904 382.016 603.904 357.376l0-227.2c0-31.04-25.216-56.256-56.192-56.256L476.224 73.92c-31.04 0-56.192 25.216-56.192 56.256l0 227.2 0 24.576 0 449.728 183.808 0L603.84 382.016z" p-id="7689"></path><path d="M840.512 557.632 840.512 424.192 840.512 305.856c0-31.04-25.216-56.192-56.192-56.192l-71.488 0c-30.976 0-56.256 25.152-56.256 56.192l0 118.336 0 133.44 0 274.112 183.936 0L840.512 557.632z" p-id="7690"></path><path d="M64 889.152l896 0 0 60.928-896 0 0-60.928Z" p-id="7691"></path></svg>