<?xml version="1.0" standalone="no"?><!DOCTYPE svg PUBLIC "-//W3C//DTD SVG 1.1//EN" "http://www.w3.org/Graphics/SVG/1.1/DTD/svg11.dtd"><svg t="1517800336826" class="icon" style="" viewBox="0 0 1024 1024" version="1.1" xmlns="http://www.w3.org/2000/svg" p-id="5148" xmlns:xlink="http://www.w3.org/1999/xlink" width="200" height="200"><defs><style type="text/css"></style></defs><path d="M512.064 531.008a172.48 172.48 0 0 1-172.256-172.256 172.48 172.48 0 0 1 172.256-172.256 172.48 172.48 0 0 1 172.256 172.256 172.48 172.48 0 0 1-172.256 172.256z m0-306.048c-73.792 0-133.76 59.968-133.76 133.792s59.968 133.792 133.76 133.792c73.824 0 133.792-60 133.792-133.792S585.888 224.96 512.064 224.96z" p-id="5149"></path><path d="M512.064 898.784a19.328 19.328 0 0 1-11.424-3.712c-80.544-58.88-166.336-143.872-229.44-227.04-56.864-74.912-124.672-186.912-124.672-294.848 0-97.6 38.016-189.44 107.104-258.432A363.52 363.52 0 0 1 512.064 7.648c97.632 0 189.44 37.984 258.432 107.104a363.52 363.52 0 0 1 107.104 258.432c0 38.112-10.816 81.856-32.224 130.048-18.624 41.952-45.088 87.232-78.848 134.624a19.2 19.2 0 0 1-31.392-22.208c68.032-95.584 103.84-179.328 103.84-242.336 0-87.36-34.016-169.504-95.776-231.264a324.864 324.864 0 0 0-231.264-95.776A325.056 325.056 0 0 0 280.64 142.048a324.64 324.64 0 0 0-95.68 231.168c0 76.896 40.384 170.912 116.832 271.52 57.952 76.48 135.584 154.336 209.856 210.592 41.344-33.28 87.392-77.376 131.008-125.472a19.328 19.328 0 0 1 27.168-1.344 19.328 19.328 0 0 1 1.344 27.168c-49.152 54.208-101.472 103.616-147.36 139.104a19.104 19.104 0 0 1-11.744 4z" p-id="5150"></path><path d="M512.064 1016.352c-133.312 0-258.784-13.696-353.344-38.72-47.136-12.352-84.384-27.04-110.848-43.456C16.128 914.4 0 891.968 0 867.328c0-37.408 36.768-69.504 109.28-95.328 63.456-22.592 149.888-38.944 250.016-47.456a19.296 19.296 0 0 1 20.8 17.536 19.296 19.296 0 0 1-17.568 20.768c-223.552 19.008-324.16 72.512-324.16 104.48 0 17.92 34.016 47.808 130.048 73.184 91.584 24.16 213.568 37.376 343.648 37.376s252.064-13.216 343.52-37.376c95.936-25.248 130.048-55.168 130.048-73.184 0-14.4-22.592-37.632-85.952-59.872-61.056-21.408-148.352-37.408-245.696-45.184a19.264 19.264 0 0 1 2.976-38.368c102.016 8.192 190.272 24.544 255.328 47.264 74.208 25.92 111.712 58.272 111.712 96.16 0 24.672-16.096 47.104-47.84 66.848-26.464 16.448-63.712 31.136-110.816 43.456-94.624 25.024-220.096 38.72-353.28 38.72z" p-id="5151"></path></svg>