<?xml version="1.0" standalone="no"?><!DOCTYPE svg PUBLIC "-//W3C//DTD SVG 1.1//EN" "http://www.w3.org/Graphics/SVG/1.1/DTD/svg11.dtd"><svg t="1517800541688" class="icon" style="" viewBox="0 0 1024 1024" version="1.1" xmlns="http://www.w3.org/2000/svg" p-id="8266" xmlns:xlink="http://www.w3.org/1999/xlink" width="200" height="200"><defs><style type="text/css"></style></defs><path d="M704 615 704 292 384 581 384 75.9C384 34 350 0 308.1 0L75.9 0C34 0 0 34 0 75.9l0 256 0 616.1 0 0C0 990 34 1024 75.9 1024l0 0 232.1 0 640 0c41.9 0 75.9-34 75.9-75.9L1023.9 288.9 704 615zM64 331.9 64 256l256 0 0 128L64 384 64 331.9zM75.9 64l232.1 0c6.6 0 11.9 5.4 11.9 11.9L319.9 192 64 192 64 75.9C64 69.4 69.4 64 75.9 64zM960 948.1c0 6.6-5.4 11.9-11.9 11.9l-640 0L75.9 960c-6.6 0-11.9-5.4-11.9-11.9L64 448l256 0 0 133c0 25.3 14.9 48.2 38 58.5 8.3 3.7 17.2 5.5 26 5.5 15.6 0 30.9-5.7 42.9-16.5L640 436l0 179c0 26 15.7 49.4 39.8 59.2 7.8 3.2 16.1 4.8 24.2 4.8 16.9 0 33.4-6.7 45.7-19.2L960 445.5 960 948.1z" p-id="8267"></path></svg>