<?xml version="1.0" standalone="no"?><!DOCTYPE svg PUBLIC "-//W3C//DTD SVG 1.1//EN" "http://www.w3.org/Graphics/SVG/1.1/DTD/svg11.dtd"><svg t="1517800174491" class="icon" style="" viewBox="0 0 1024 1024" version="1.1" xmlns="http://www.w3.org/2000/svg" p-id="3768" xmlns:xlink="http://www.w3.org/1999/xlink" width="200" height="200"><defs><style type="text/css"></style></defs><path d="M926.837588 288.433178l-75.182306 0c18.579147 0 35.314297-37.163411 42.916439-61.660338 9.325389-30.255071 3.631714-60.004629-16.477276-86.445838-1.370207-1.815345-2.927679-3.373841-4.646833-4.834098-96.722902-82.691327-227.64572-3.024893-280.874015 36.080753-14.349823 9.957793-17.97642 29.653367-8.112772 44.095287 9.923 14.541181 29.714765 18.264992 44.221154 8.335852 0.286526-0.188288 2.608407-1.877767 2.927679-2.068102 30.414707-22.400173 133.726677-90.678232 197.74062-40.216957 5.981225 8.908904 7.281847 17.277502 4.421706 26.696012-7.572466 24.496927-39.454594 47.087435-54.882981 52.243875-59.85011 22.457478-79.352279 24.750707-104.392582 26.565029-2.097778 0.159636-3.850701 1.207501-5.758144 1.207501l-87.910189 0c-1.397836 0-2.509147-4.072759-4.514827-5.916756C543.512203 251.941056 465.753211 180.098821 450.3238 169.792081 333.459163 89.644693 227.290121 77.172637 159.103136 135.493927c-1.714038 1.460258-3.276626 3.179412-4.640694 4.960988-20.143783 26.473955-25.837458 56.063877-16.48137 86.318948 7.572466 24.530696 24.337291 61.660338 42.788525 61.660338l-81.06427 0c-17.565051 0-33.153074 15.07944-33.153074 32.644491l0 159.082158c0 17.565051 0 31.816636 31.818683 31.816636L98.370937 823.078944c0 55.483662 42.377156 101.681844 92.803639 101.681844l641.581264 0c50.999534 0 92.837408-47.120181 92.837408-101.681844L925.593248 511.977487c31.818683 0 31.818683-14.252609 31.818683-31.816636L957.411931 321.077669C957.410907 303.512618 944.431292 288.433178 926.837588 288.433178L926.837588 288.433178zM358.088096 287.25433c-25.075095-1.843998-44.639686-4.324492-105.567337-27.166733-14.287401-4.7727-46.164413-27.298739-53.737902-51.768037-2.927679-9.41851-1.557472-17.718547 4.387937-26.627451 63.695694-50.146097 168.626535 11.193947 213.425857 41.900296 6.297426 4.51585 37.381375 33.023114 72.890101 64.840774l-125.641535 0C361.904005 288.433178 360.156198 287.414989 358.088096 287.25433L358.088096 287.25433zM893.779681 352.067474l0 95.448886L134.130372 447.51636c-0.921999 0-3.945869 1.146103-3.945869 1.242294l0-96.691179L893.779681 352.067474 893.779681 352.067474zM832.75584 861.129562 191.174576 861.129562c-16.414855 0-29.172413-20.553105-29.172413-38.050618L162.002163 511.147586l699.958836 0L861.960998 823.078944C861.960998 842.069461 848.407308 861.129562 832.75584 861.129562L832.75584 861.129562zM832.75584 861.129562" p-id="3769"></path></svg>