<?xml version="1.0" standalone="no"?><!DOCTYPE svg PUBLIC "-//W3C//DTD SVG 1.1//EN" "http://www.w3.org/Graphics/SVG/1.1/DTD/svg11.dtd"><svg class="icon" width="200px" height="200.00px" viewBox="0 0 1024 1024" version="1.1" xmlns="http://www.w3.org/2000/svg"><path fill="#BFCBD9" d="M98.685 190.194v644.297c0 50.623 40.959 92.042 92.042 92.042h644.297c50.623 0 92.042-41.419 92.042-92.042V190.194c0-50.623-41.419-92.042-92.042-92.042H190.727c-51.084 0-92.042 41.419-92.042 92.042z m552.254 184.085c0 76.395-61.668 138.064-138.064 138.064s-138.064-61.668-138.064-138.064 61.668-138.064 138.064-138.064 138.064 61.669 138.064 138.064zM236.748 742.448c0-92.042 184.085-142.666 276.127-142.666s276.127 50.623 276.127 142.666v46.021H236.748v-46.021z"  /></svg>