<?xml version="1.0" standalone="no"?><!DOCTYPE svg PUBLIC "-//W3C//DTD SVG 1.1//EN" "http://www.w3.org/Graphics/SVG/1.1/DTD/svg11.dtd"><svg class="icon" width="200px" height="200.00px" viewBox="0 0 1024 1024" version="1.1" xmlns="http://www.w3.org/2000/svg"><path fill="#BFCBD9" d="M763.71 567.73c-108.2 0-195.92 87.71-195.92 195.92s87.71 195.92 195.92 195.92 195.92-87.71 195.92-195.92-87.72-195.92-195.92-195.92z m0 346a150.08 150.08 0 1 1 150.08-150.09 150.08 150.08 0 0 1-150.08 150.08zM861.85 746.66h-0.07v-0.43H666.25v0.39a16.54 16.54 0 0 0-0.05 33l0.05 0.39h195.54v-0.43a16.54 16.54 0 0 0 0.07-32.92zM485 902.29h-1.91c-0.58 0-1.15 0-1.71 0.05H121.3V121.22h224v240.85a35.52 35.52 0 0 0 35.52 35.52h264.54a35.52 35.52 0 0 0 35.52-35.52V121.22h221.43v360.1c0 0.55-0.06 1.19-0.06 1.83a28.67 28.67 0 1 0 57.33 0c0-0.64 0-1.28-0.06-1.91l0.06 0.08V99.47a35.52 35.52 0 0 0-35.52-35.52H99.53A35.52 35.52 0 0 0 64 99.47V924a35.52 35.52 0 0 0 35.52 35.52l385.41-0.06a28.67 28.67 0 0 0 0.09-57.2z m-82.45-781.07h221V340.3h-221z" /></svg>