<?xml version="1.0" standalone="no"?><!DOCTYPE svg PUBLIC "-//W3C//DTD SVG 1.1//EN" "http://www.w3.org/Graphics/SVG/1.1/DTD/svg11.dtd"><svg class="icon" width="200px" height="200.00px" viewBox="0 0 1024 1024" version="1.1" xmlns="http://www.w3.org/2000/svg"><path fill="#BFCBD9" d="M512 960C264.533333 960 64 759.466667 64 512S264.533333 64 512 64s448 200.533333 448 448-200.533333 448-448 448z m0-842.666667C294.4 117.333333 115.2 294.4 115.2 512s177.066667 394.666667 394.666667 394.666667S904.533333 729.6 904.533333 512C906.666667 294.4 729.6 117.333333 512 117.333333z"  /><path fill="#BFCBD9" d="M300.8 307.2l12.8 8.533333c4.266667 4.266667 10.666667 8.533333 19.2 14.933334 8.533333 6.4 14.933333 10.666667 19.2 17.066666 6.4 4.266667 10.666667 8.533333 12.8 12.8 4.266667 4.266667 8.533333 8.533333 10.666667 8.533334 4.266667 2.133333 6.4 4.266667 8.533333 4.266666h2.133333c2.133333 0 4.266667 0 8.533334-2.133333l4.266666-4.266667c4.266667-4.266667 6.4-8.533333 6.4-12.8 0-4.266667-2.133333-8.533333-6.4-12.8l-10.666666-10.666666-21.333334-17.066667c-8.533333-8.533333-17.066667-14.933333-23.466666-19.2-6.4-4.266667-12.8-8.533333-14.933334-12.8-6.4-4.266667-10.666667-8.533333-14.933333-8.533333-4.266667-2.133333-10.666667-2.133333-12.8 0-4.266667 2.133333-6.4 4.266667-8.533333 8.533333-2.133333 2.133333-2.133333 4.266667-2.133334 6.4v2.133333c0 2.133333 0 6.4 4.266667 10.666667 0 2.133333 4.266667 4.266667 6.4 6.4zM736 699.733333H533.333333c-44.8 0-78.933333-8.533333-106.666666-23.466666-25.6-14.933333-40.533333-36.266667-46.933334-61.866667v-160-17.066667c0-6.4-2.133333-10.666667-4.266666-14.933333-2.133333-4.266667-6.4-6.4-12.8-6.4-4.266667 0-8.533333-2.133333-12.8-2.133333h-64c-4.266667 0-8.533333 2.133333-12.8 4.266666-4.266667 2.133333-4.266667 8.533333-4.266667 17.066667 0 10.666667 6.4 17.066667 17.066667 17.066667H341.333333c4.266667 0 6.4 0 6.4 6.4V618.666667c0 32-19.2 59.733333-61.866666 81.066666-6.4 4.266667-10.666667 6.4-12.8 10.666667-4.266667 6.4-2.133333 10.666667-2.133334 14.933333 2.133333 4.266667 4.266667 6.4 6.4 8.533334 2.133333 2.133333 6.4 2.133333 10.666667 4.266666 6.4 0 17.066667-2.133333 42.666667-23.466666 17.066667-12.8 29.866667-29.866667 38.4-49.066667 32 46.933333 91.733333 70.4 177.066666 70.4h192c10.666667 0 17.066667-6.4 17.066667-19.2-2.133333-10.666667-8.533333-17.066667-19.2-17.066667z"  /><path fill="#BFCBD9" d="M458.666667 674.133333c4.266667 0 14.933333-2.133333 46.933333-10.666666 10.666667-4.266667 21.333333-6.4 29.866667-10.666667 8.533333-4.266667 17.066667-6.4 23.466666-10.666667 6.4-2.133333 12.8-6.4 17.066667-8.533333 4.266667-2.133333 8.533333-4.266667 10.666667-6.4l6.4-6.4c0-2.133333 2.133333-4.266667 2.133333-6.4 0-4.266667-2.133333-6.4-4.266667-10.666667 0-2.133333-2.133333-2.133333-2.133333-4.266666-4.266667 0-6.4-2.133333-12.8-2.133334-2.133333 0-4.266667 2.133333-8.533333 2.133334-4.266667 2.133333-8.533333 4.266667-14.933334 6.4-4.266667 2.133333-12.8 6.4-19.2 8.533333-8.533333 4.266667-17.066667 6.4-27.733333 10.666667-29.866667 10.666667-36.266667 10.666667-36.266667 10.666666h-2.133333V494.933333h29.866667c27.733333 25.6 53.333333 46.933333 76.8 68.266667s44.8 40.533333 61.866666 57.6l57.6 55.466667c4.266667 4.266667 8.533333 6.4 12.8 6.4h6.4c8.533333-2.133333 12.8-8.533333 12.8-17.066667 0-4.266667-2.133333-10.666667-8.533333-17.066667-2.133333-2.133333-10.666667-8.533333-21.333333-21.333333-10.666667-10.666667-25.6-23.466667-44.8-42.666667 17.066667-10.666667 34.133333-21.333333 46.933333-34.133333 17.066667-14.933333 25.6-25.6 25.6-34.133333 0-2.133333 0-4.266667-2.133333-8.533334-2.133333-2.133333-4.266667-4.266667-8.533334-6.4-4.266667-2.133333-8.533333-2.133333-12.8 0-4.266667 0-8.533333 4.266667-14.933333 8.533334-19.2 19.2-40.533333 34.133333-64 49.066666l-40.533333-36.266666c-10.666667-10.666667-21.333333-19.2-34.133334-29.866667h123.733334c12.8 0 23.466667-4.266667 29.866666-10.666667 6.4-6.4 10.666667-17.066667 10.666667-32V320c0-14.933333-2.133333-25.6-8.533333-32-6.4-6.4-17.066667-10.666667-29.866667-10.666667H469.333333c-14.933333 0-23.466667 2.133333-29.866666 10.666667-6.4 6.4-8.533333 17.066667-8.533334 32v309.333333c0 12.8 2.133333 23.466667 6.4 29.866667 2.133333 8.533333 8.533333 14.933333 21.333334 14.933333z m8.533333-300.8v-44.8c0-6.4 2.133333-8.533333 2.133333-8.533333h202.666667c6.4 0 6.4 2.133333 6.4 2.133333s2.133333 2.133333 2.133333 8.533334v44.8h-213.333333z m211.2 34.133334v42.666666c0 6.4-2.133333 8.533333-2.133333 10.666667 0 0-2.133333 2.133333-6.4 2.133333h-202.666667v-53.333333h211.2z"  /></svg>