<?xml version="1.0" standalone="no"?><!DOCTYPE svg PUBLIC "-//W3C//DTD SVG 1.1//EN" "http://www.w3.org/Graphics/SVG/1.1/DTD/svg11.dtd"><svg t="1517802014246" class="icon" style="" viewBox="0 0 1024 1024" version="1.1" xmlns="http://www.w3.org/2000/svg" p-id="18513" xmlns:xlink="http://www.w3.org/1999/xlink" width="200" height="200"><defs><style type="text/css"></style></defs><path d="M515.413333 163.84c-94.435556 0-170.666667 76.231111-170.666667 170.666667s76.231111 170.666667 170.666667 170.666667 170.666667-76.231111 170.666667-170.666667S609.848889 163.84 515.413333 163.84zM515.413333 448.284444c-62.577778 0-113.777778-51.2-113.777778-113.777778s51.2-113.777778 113.777778-113.777778 113.777778 51.2 113.777778 113.777778S578.56 448.284444 515.413333 448.284444z" p-id="18514"></path><path d="M512 0C229.262222 0 0 229.262222 0 512s229.262222 512 512 512 512-229.262222 512-512S794.737778 0 512 0zM870.4 791.893333C784.497778 896 657.635556 967.111111 512 967.111111c-141.653333 0-267.377778-64.853333-351.004444-166.115556C244.622222 695.182222 289.564444 625.777778 519.395556 625.777778c36.408889 0 38.684444-56.888889 0-56.888889-241.777778 0-298.666667 72.248889-392.533333 183.751111C82.488889 683.235556 56.888889 600.746667 56.888889 512c0-251.448889 203.662222-455.111111 455.111111-455.111111s455.111111 203.662222 455.111111 455.111111C967.111111 596.764444 944.355556 701.44 870.4 791.893333z" p-id="18515"></path><path d="M863.573333 710.542222c-17.066667-13.084444-19.342222-38.115556-4.551111-54.044444 23.324444-25.031111 2.844444-65.422222-31.288889-60.871111-21.617778 2.844444-40.391111-13.653333-40.96-35.271111-1.137778-34.133333-44.373333-48.355556-65.422222-21.048889-13.084444 17.066667-38.115556 19.342222-54.044444 4.551111-25.031111-23.324444-65.422222-2.844444-60.871111 31.288889 2.844444 21.617778-13.653333 40.391111-35.271111 40.96-34.133333 1.137778-48.355556 44.373333-21.048889 65.422222l0 0c17.066667 13.084444 19.342222 38.115556 4.551111 54.044444l0 0c-23.324444 25.031111-2.844444 65.422222 31.288889 60.871111 21.617778-2.844444 40.391111 13.653333 40.96 35.271111 1.137778 34.133333 44.373333 48.355556 65.422222 21.048889 13.084444-17.066667 38.115556-19.342222 54.044444-4.551111 25.031111 23.324444 65.422222 2.844444 60.871111-31.288889-2.844444-21.617778 13.653333-40.391111 35.271111-40.96C876.657778 774.826667 890.311111 731.022222 863.573333 710.542222zM797.013333 749.226667c-14.222222 0.568889-25.031111 13.084444-23.324444 27.306667l0 0c2.844444 22.755556-23.893333 36.408889-40.96 21.048889-10.24-9.671111-27.306667-8.533333-35.84 2.844444-13.653333 18.204444-42.666667 8.533333-43.235556-14.222222-0.568889-14.222222-13.084444-25.031111-27.306667-23.324444-22.755556 2.844444-36.408889-23.893333-21.048889-40.96 9.671111-10.24 8.533333-27.306667-2.844444-35.84-18.204444-13.653333-8.533333-42.666667 14.222222-43.235556 14.222222-0.568889 25.031111-13.084444 23.324444-27.306667-2.844444-22.755556 23.893333-36.408889 40.96-21.048889 10.24 9.671111 27.306667 8.533333 35.84-2.844444l0 0c13.653333-18.204444 42.666667-8.533333 43.235556 14.222222 0.568889 14.222222 13.084444 25.031111 27.306667 23.324444 22.755556-2.844444 36.408889 23.893333 21.048889 40.96-9.671111 10.24-8.533333 27.306667 2.844444 35.84C829.44 719.644444 819.768889 748.088889 797.013333 749.226667z" p-id="18516"></path><path d="M707.128889 695.751111m-28.444444 0a0.5 0.5 0 1 0 56.888889 0 0.5 0.5 0 1 0-56.888889 0Z" p-id="18517"></path></svg>