<?xml version="1.0" standalone="no"?><!DOCTYPE svg PUBLIC "-//W3C//DTD SVG 1.1//EN" "http://www.w3.org/Graphics/SVG/1.1/DTD/svg11.dtd"><svg t="1517802335248" class="icon" style="" viewBox="0 0 1024 1024" version="1.1" xmlns="http://www.w3.org/2000/svg" p-id="20859" xmlns:xlink="http://www.w3.org/1999/xlink" width="200" height="200"><defs><style type="text/css"></style></defs><path d="M185.6 128l0 768 448 0L633.6 128 185.6 128zM313.6 748.8l-64 0 0-64 64 0L313.6 748.8zM313.6 620.8l-64 0 0-64 64 0L313.6 620.8zM313.6 492.8l-64 0 0-64 64 0L313.6 492.8zM313.6 364.8l-64 0 0-64 64 0L313.6 364.8zM313.6 236.8l-64 0 0-64 64 0L313.6 236.8zM441.6 748.8l-64 0 0-64 64 0L441.6 748.8zM441.6 620.8l-64 0 0-64 64 0L441.6 620.8zM441.6 492.8l-64 0 0-64 64 0L441.6 492.8zM441.6 364.8l-64 0 0-64 64 0L441.6 364.8zM441.6 236.8l-64 0 0-64 64 0L441.6 236.8zM569.6 748.8l-64 0 0-64 64 0L569.6 748.8zM569.6 620.8l-64 0 0-64 64 0L569.6 620.8zM569.6 492.8l-64 0 0-64 64 0L569.6 492.8zM569.6 364.8l-64 0 0-64 64 0L569.6 364.8zM569.6 236.8l-64 0 0-64 64 0L569.6 236.8z" p-id="20860"></path><path d="M684.8 192 684.8 230.4 742.4 230.4 742.4 294.4 684.8 294.4 684.8 352 742.4 352 742.4 409.6 684.8 409.6 684.8 467.2 742.4 467.2 742.4 524.8 684.8 524.8 684.8 582.4 742.4 582.4 742.4 646.4 684.8 646.4 684.8 704 742.4 704 742.4 761.6 684.8 761.6 684.8 896 806.4 896 806.4 192Z" p-id="20861"></path></svg>