<?xml version="1.0" standalone="no"?><!DOCTYPE svg PUBLIC "-//W3C//DTD SVG 1.1//EN" "http://www.w3.org/Graphics/SVG/1.1/DTD/svg11.dtd"><svg t="1517801346190" class="icon" style="" viewBox="0 0 1024 1024" version="1.1" xmlns="http://www.w3.org/2000/svg" p-id="12665" xmlns:xlink="http://www.w3.org/1999/xlink" width="200" height="200"><defs><style type="text/css"></style></defs><path d="M800 960h-576c-70.4 0-128-57.6-128-128V192c0-70.4 57.6-128 128-128h576c70.4 0 128 57.6 128 128v640c0 70.4-57.6 128-128 128z m64-768c0-38.4-25.6-64-64-64h-576c-38.4 0-64 25.6-64 64v128h704V192z m0 192h-704v448c0 38.4 25.6 64 64 64h64V608c0-19.2 12.8-32 32-32s32 12.8 32 32V896h64V544c0-19.2 12.8-32 32-32s32 12.8 32 32V896h64V608c0-19.2 12.8-32 32-32s32 12.8 32 32V896h64V544c0-19.2 12.8-32 32-32s32 12.8 32 32V896h64c38.4 0 64-25.6 64-64V384z" p-id="12666"></path></svg>