<?xml version="1.0" standalone="no"?><!DOCTYPE svg PUBLIC "-//W3C//DTD SVG 1.1//EN" "http://www.w3.org/Graphics/SVG/1.1/DTD/svg11.dtd"><svg t="1517801265512" class="icon" style="" viewBox="0 0 1024 1024" version="1.1" xmlns="http://www.w3.org/2000/svg" p-id="11532" xmlns:xlink="http://www.w3.org/1999/xlink" width="200" height="200"><defs><style type="text/css"></style></defs><path d="M185.6 339.2h652.8c12.8 0 19.2-12.8 19.2-19.2 0-12.8-12.8-19.2-19.2-19.2H185.6c-12.8 0-19.2 12.8-19.2 19.2-6.4 6.4 6.4 19.2 19.2 19.2z m544 480c-12.8 0-19.2 12.8-19.2 19.2v44.8c0 12.8 12.8 19.2 19.2 19.2 12.8 0 19.2-12.8 19.2-19.2v-44.8c0-12.8-6.4-19.2-19.2-19.2z m-435.2 0c-12.8 0-19.2 12.8-19.2 19.2v44.8c0 12.8 12.8 19.2 19.2 19.2 12.8 0 19.2-12.8 19.2-19.2v-44.8c0-12.8-6.4-19.2-19.2-19.2zM947.2 121.6H76.8c-25.6 0-44.8 19.2-44.8 44.8v652.8c0 25.6 19.2 44.8 44.8 44.8h128c12.8 0 19.2-12.8 19.2-19.2 0-38.4 32-64 64-64 38.4 0 64 32 64 64 0 12.8 12.8 19.2 19.2 19.2H640c12.8 0 19.2-12.8 19.2-19.2 0-38.4 32-64 64-64 38.4 0 64 32 64 64 0 12.8 12.8 19.2 19.2 19.2h128c25.6 0 44.8-19.2 44.8-44.8V160c12.8-19.2-6.4-38.4-32-38.4z m0 697.6h-108.8c-12.8-51.2-51.2-89.6-108.8-89.6-51.2 0-96 38.4-108.8 89.6H403.2c-12.8-51.2-51.2-89.6-108.8-89.6s-96 38.4-108.8 89.6H76.8V160h870.4v659.2zM185.6 601.6h435.2c12.8 0 19.2-12.8 19.2-25.6s-12.8-19.2-19.2-19.2H185.6c-12.8 0-25.6 6.4-25.6 19.2 0 12.8 12.8 25.6 25.6 25.6z m0-179.2h652.8c12.8 0 19.2-12.8 19.2-19.2 0-12.8-12.8-19.2-19.2-19.2H185.6c-12.8 0-25.6 6.4-25.6 19.2 0 12.8 12.8 19.2 25.6 19.2z m0 89.6h652.8c12.8 0 19.2-12.8 19.2-19.2s-12.8-19.2-19.2-19.2H185.6c-12.8 0-19.2 12.8-19.2 19.2s6.4 19.2 19.2 19.2z" fill="" p-id="11533"></path></svg>