<?xml version="1.0" standalone="no"?><!DOCTYPE svg PUBLIC "-//W3C//DTD SVG 1.1//EN" "http://www.w3.org/Graphics/SVG/1.1/DTD/svg11.dtd"><svg t="1517802023564" class="icon" style="" viewBox="0 0 1024 1024" version="1.1" xmlns="http://www.w3.org/2000/svg" p-id="18630" xmlns:xlink="http://www.w3.org/1999/xlink" width="200" height="200"><defs><style type="text/css"></style></defs><path d="M1007.35498 841.727541c-19.905719-15.35584-22.180658-44.361316-5.118613-62.560831 27.299272-29.005476 3.412409-76.210467-36.399029-71.091853-25.024332 3.412409-47.20499-15.924575-47.773725-40.948907-1.13747-39.811438-51.754869-56.304748-76.210467-24.455597-15.35584 19.905719-44.361316 22.180658-62.560831 5.118613-29.005476-27.299272-76.210467-3.412409-71.091853 36.399029 3.412409 25.024332-15.924575 47.20499-40.948907 47.773725-39.811438 1.13747-56.304748 51.754869-24.455597 76.210467l0 0c19.905719 15.35584 22.180658 44.361316 5.118613 62.560831l0 0c-27.299272 29.005476-3.412409 76.210467 36.399029 71.091853 25.024332-3.412409 47.20499 15.924575 47.773725 40.948907 1.13747 39.811438 51.754869 56.304748 76.210467 24.455597 15.35584-19.905719 44.361316-22.180658 62.560831-5.118613 29.005476 27.299272 76.210467 3.412409 71.091853-36.399029-3.412409-25.024332 15.924575-47.20499 40.948907-47.773725C1022.71082 916.800538 1038.635395 866.183138 1007.35498 841.727541zM937.400597 891.207471c-18.199514 0.568735-31.280415 16.49331-29.005476 34.124089 3.981144 28.436741-30.142946 45.498786-50.617399 26.161802-13.080901-12.512166-34.124089-10.805962-44.930051 3.412409-17.63078 22.749393-53.461074 10.805962-54.598543-17.63078-0.568735-18.199514-16.49331-31.280415-34.124089-29.005476-28.436741 3.981144-45.498786-30.142946-26.161802-50.617399l0 0c12.512166-13.080901 10.805962-34.124089-3.412409-44.930051l0 0c-22.749393-17.63078-10.805962-53.461074 17.63078-54.598543 18.199514-0.568735 31.280415-16.49331 29.005476-34.124089-3.981144-28.436741 30.142946-45.498786 50.617399-26.161802 13.080901 12.512166 34.124089 10.805962 44.930051-3.412409 17.63078-22.749393 53.461074-10.805962 54.598543 17.63078 0.568735 18.199514 16.49331 31.280415 34.124089 29.005476 28.436741-3.981144 45.498786 30.142946 26.161802 50.617399-12.512166 13.080901-10.805962 34.124089 3.412409 44.930051C977.780769 854.239707 965.837338 890.638736 937.400597 891.207471z" p-id="18631"></path><path d="M824.791101 824.665496m-28.436741 0a0.5 0.5 0 1 0 56.873482 0 0.5 0.5 0 1 0-56.873482 0Z" p-id="18632"></path><path d="M772.467497 315.079093c0-47.20499-38.105233-85.310224-85.310224-85.310224s-85.310224 38.105233-85.310224 85.310224c0 43.223847 32.417885 78.485406 73.935527 84.172754-7.393553 150.145994-56.304748 251.380793-221.806582 251.380793-168.914243 0-219.531642-95.547451-226.35646-250.243323 44.930051-2.843674 80.19161-39.242703 80.19161-84.741489 0-47.20499-38.105233-85.310224-85.310224-85.310224s-85.310224 38.105233-85.310224 85.310224c0 27.868006 13.649636 52.323604 34.692824 68.248179 6.824818 173.464122 59.148422 324.17885 282.092473 324.17885 220.100377 0 274.130186-161.52069 281.523738-321.903911C757.680392 370.246371 772.467497 344.653304 772.467497 315.079093zM223.069656 286.642352c15.924575 0 28.436741 12.512166 28.436741 28.436741 0 15.924575-12.512166 28.436741-28.436741 28.436741-15.924575 0-28.436741-12.512166-28.436741-28.436741C194.632915 299.723253 207.145081 286.642352 223.069656 286.642352zM658.720532 315.079093c0-15.924575 12.512166-28.436741 28.436741-28.436741 15.924575 0 28.436741 12.512166 28.436741 28.436741 0 15.924575-12.512166 28.436741-28.436741 28.436741C671.801433 343.515834 658.720532 331.003668 658.720532 315.079093z" p-id="18633"></path><path d="M910.101325 113.746965c0-62.560831-51.186134-113.746965-113.746965-113.746965L113.87257 0C51.311739 0 0.125605 51.186134 0.125605 113.746965l0 682.48179c0 62.560831 51.186134 113.746965 113.746965 113.746965l454.98786 0c0 0 0 0 0.568735 0 15.924575 0 28.436741-12.512166 28.436741-28.436741 0-15.924575-12.512166-28.436741-28.436741-28.436741 0 0 0 0-0.568735 0l0 0L113.87257 853.102237c-31.280415 0-56.873482-25.593067-56.873482-56.873482L56.999088 113.746965c0-31.280415 25.593067-56.873482 56.873482-56.873482l682.48179 0c31.280415 0 56.873482 25.593067 56.873482 56.873482l0 454.98786 0 0c0 0 0 0 0 0.568735 0 15.924575 12.512166 28.436741 28.436741 28.436741s28.436741-12.512166 28.436741-28.436741c0 0 0-0.568735 0-0.568735l0 0L910.101325 113.746965z" p-id="18634"></path></svg>