<?xml version="1.0" standalone="no"?><!DOCTYPE svg PUBLIC "-//W3C//DTD SVG 1.1//EN" "http://www.w3.org/Graphics/SVG/1.1/DTD/svg11.dtd"><svg t="1517801073645" class="icon" style="" viewBox="0 0 1024 1024" version="1.1" xmlns="http://www.w3.org/2000/svg" p-id="10215" xmlns:xlink="http://www.w3.org/1999/xlink" width="200" height="200"><defs><style type="text/css"></style></defs><path d="M335.634 379.457c44.066 0 79.8-32.258 79.8-72.039 0-39.763-35.732-72.001-79.8-72.001-44.028 0-79.761 32.238-79.761 72.001 0.001 39.782 35.733 72.039 79.761 72.039zM334.189 400.004c-87.305 0-158.056 89.442-158.056 199.779 0 3.667 0.097 7.331 0.251 10.977h315.608c0.154-3.646 0.251-7.312 0.251-10.977 0-110.337-70.788-199.779-158.055-199.779zM670.052 828.096c0-10.92-8.855-19.756-19.757-19.756h-276.594c-10.901 0-19.757 8.836-19.757 19.756v79.024h-197.567v59.269h711.226v-59.269h-197.55v-79.024zM907.135 57.612h-790.273c-32.742 0-59.27 26.508-59.27 59.268v553.168c0 32.72 26.529 59.268 59.27 59.268h790.273c32.742 0 59.271-26.547 59.271-59.268v-553.168c0-32.76-26.53-59.268-59.271-59.268zM907.135 650.254c0 10.92-8.855 19.756-19.757 19.756h-750.758c-10.92 0-19.757-8.836-19.757-19.756v-513.657c0-10.92 8.837-19.756 19.757-19.756h750.759c10.901 0 19.757 8.836 19.757 19.756v513.657zM808.351 551.512h-197.567c-10.901 0-19.757 8.836-19.757 19.756 0 10.902 8.855 19.757 19.757 19.757h197.568c10.901 0 19.757-8.855 19.757-19.757-0.001-10.92-8.856-19.756-19.758-19.756zM808.351 452.731h-197.567c-10.901 0-19.757 8.836-19.757 19.756 0 10.9 8.855 19.756 19.757 19.756h197.568c10.901 0 19.757-8.855 19.757-19.756-0.001-10.919-8.856-19.756-19.758-19.756zM808.351 353.953h-197.567c-10.901 0-19.757 8.836-19.757 19.756 0 10.9 8.855 19.756 19.757 19.756h197.568c10.901 0 19.757-8.855 19.757-19.756-0.001-10.921-8.856-19.756-19.758-19.756zM808.351 255.172h-197.567c-10.901 0-19.757 8.836-19.757 19.756 0 10.902 8.855 19.756 19.757 19.756h197.568c10.901 0 19.757-8.855 19.757-19.756-0.001-10.92-8.856-19.756-19.758-19.756z" p-id="10216"></path></svg>