<?xml version="1.0" standalone="no"?><!DOCTYPE svg PUBLIC "-//W3C//DTD SVG 1.1//EN" "http://www.w3.org/Graphics/SVG/1.1/DTD/svg11.dtd"><svg t="1517802191940" class="icon" style="" viewBox="0 0 1024 1024" version="1.1" xmlns="http://www.w3.org/2000/svg" p-id="20058" xmlns:xlink="http://www.w3.org/1999/xlink" width="200" height="200"><defs><style type="text/css"></style></defs><path d="M951.180508 527.295358c4.38589-6.901177 7.013741-15.036461 7.013741-23.819498L958.194248 251.299443c0-102.279455-83.208097-185.494715-185.494715-185.494715L251.299443 65.804728c-102.286618 0-185.494715 83.21526-185.494715 185.494715l0 521.401114c0 102.286618 83.208097 185.494715 185.494715 185.494715l521.401114 0c102.286618 0 185.494715-83.208097 185.494715-185.494715l0-66.580394c0-24.62177-19.949354-44.571125-44.571125-44.571125s-44.571125 19.949354-44.571125 44.571125l0 66.580394c0 53.131081-43.221384 96.352465-96.352465 96.352465L251.299443 869.053022c-53.131081 0-96.352465-43.221384-96.352465-96.352465L154.946978 251.299443c0-53.131081 43.221384-96.352465 96.352465-96.352465l521.401114 0c53.131081 0 96.352465 43.221384 96.352465 96.352465l0 216.135572-351.548658-0.01228 128.172171-128.172171c17.410532-17.403369 17.410532-45.623084 0-63.026452-17.410532-17.410532-45.61592-17.410532-63.026452 0L378.855584 480.019635c-0.162706 0.158612-0.356111 0.261966-0.517793 0.423649-10.891048 10.885931-14.966876 26.004257-12.231579 40.062438 1.627057 8.443299 5.706979 16.505929 12.245905 23.043832 0.099261 0.099261 0.217964 0.161682 0.317225 0.258896l203.980741 203.951065c8.705266 8.705266 20.10899 13.057387 31.512714 13.057387 11.403724 0 22.821775-4.352121 31.512714-13.057387 17.410532-17.410532 17.410532-45.630247 0-63.026452L517.497201 556.564985l391.976416 0.01228C928.687214 556.578288 944.91992 544.345686 951.180508 527.295358z" p-id="20059"></path></svg>