<?xml version="1.0" standalone="no"?><!DOCTYPE svg PUBLIC "-//W3C//DTD SVG 1.1//EN" "http://www.w3.org/Graphics/SVG/1.1/DTD/svg11.dtd"><svg class="icon" width="200px" height="200.00px" viewBox="0 0 1024 1024" version="1.1" xmlns="http://www.w3.org/2000/svg"><path fill="#BFCBD9" d="M831.984778 629.306706c-58.907645 0-106.661252-47.753607-106.661251-106.661252s47.753607-106.661252 106.661251-106.661251 106.661252 47.753607 106.661252 106.661251c0 58.906621-47.75463 106.661252-106.661252 106.661252z m0 277.31905c-58.907645 0-106.661252-47.753607-106.661251-106.661252S773.077134 693.303252 831.984778 693.303252s106.661252 47.753607 106.661252 106.661252-47.75463 106.661252-106.661252 106.661252zM192.015222 629.306706c-58.907645 0-106.661252-47.753607-106.661252-106.661252s47.753607-106.661252 106.661252-106.661251S298.676473 463.736786 298.676473 522.644431c0 58.907645-47.753607 106.662275-106.661251 106.662275z m0 277.31905c-58.907645 0-106.661252-47.753607-106.661252-106.661252S133.107577 693.303252 192.015222 693.303252 298.676473 741.056859 298.676473 799.964504s-47.753607 106.661252-106.661251 106.661252z m319.984778-277.31905c-58.907645 0-106.661252-47.753607-106.661252-106.661252s47.753607-106.661252 106.661252-106.661251 106.661252 47.753607 106.661252 106.661251c0 58.906621-47.753607 106.661252-106.661252 106.661252z m-9.204639-281.722336L106.199741 157.907403c-10.628058-5.082762-15.123442-17.819854-10.040681-28.448936a21.332864 21.332864 0 0 1 19.244297-12.128225h793.193286c11.781324 0 21.331841 9.550517 21.331841 21.331841 0 8.215102-4.717442 15.700587-12.128225 19.244296L521.203616 347.58437a21.334911 21.334911 0 0 1-18.408255 0z m9.204639 559.041386c-58.907645 0-106.661252-47.753607-106.661252-106.661252S453.092355 693.303252 512 693.303252s106.661252 47.753607 106.661252 106.661252-47.753607 106.661252-106.661252 106.661252z" /></svg>