<?xml version="1.0" standalone="no"?><!DOCTYPE svg PUBLIC "-//W3C//DTD SVG 1.1//EN" "http://www.w3.org/Graphics/SVG/1.1/DTD/svg11.dtd"><svg class="icon" width="200px" height="200.00px" viewBox="0 0 1024 1024" version="1.1" xmlns="http://www.w3.org/2000/svg"><path fill="#BFCBD9" d="M149.350516 725.279524v21.376867c0 11.867282 9.488095 21.310352 21.191648 21.310352h341.598029c11.69946 0 21.191648-9.541307 21.191648-21.310352v-21.376867c0-11.867282-9.488095-21.310352-21.191648-21.310351H170.542164c-11.69946 0-21.191648 9.541307-21.191648 21.310351z m0-149.325957v21.376867c0 11.867282 9.508561 21.310352 21.237697 21.310352h192.178951c11.748578 0 21.237697-9.541307 21.237697-21.310352v-21.376867c0-11.867282-9.508561-21.310352-21.237697-21.310351H170.588213c-11.748578 0-21.237697 9.541307-21.237697 21.310351zM85.35397 106.664322h405.426753l106.535385 85.32941h341.329922c35.343973 0 63.996546 28.652574 63.996546 63.996547v597.304851c0 35.344996-28.652574 63.996546-63.996546 63.996546H85.35397c-35.344996 0-63.996546-28.652574-63.996546-63.996546V170.661891c-0.001023-35.344996 28.65155-63.99757 63.996546-63.997569z" /></svg>