<?xml version="1.0" standalone="no"?><!DOCTYPE svg PUBLIC "-//W3C//DTD SVG 1.1//EN" "http://www.w3.org/Graphics/SVG/1.1/DTD/svg11.dtd"><svg t="1517801732695" class="icon" style="" viewBox="0 0 1422 1024" version="1.1" xmlns="http://www.w3.org/2000/svg" p-id="16791" xmlns:xlink="http://www.w3.org/1999/xlink" width="277.734375" height="200"><defs><style type="text/css"></style></defs><path d="M1166.222222 0H256C113.777778 0 0 113.777778 0 256v512c0 142.222222 113.777778 256 256 256h910.222222c142.222222 0 256-113.777778 256-256V256c0-142.222222-113.777778-256-256-256z m0 56.888889c42.666667 0 82.488889 14.222222 113.777778 36.977778l-568.888889 426.666666-568.888889-426.666666C173.511111 71.111111 213.333333 56.888889 256 56.888889h910.222222z m199.111111 711.111111c0 110.933333-88.177778 199.111111-199.111111 199.111111H256c-110.933333 0-199.111111-88.177778-199.111111-199.111111V256c0-45.511111 17.066667-91.022222 42.666667-125.155556l594.488888 446.577778c5.688889 2.844444 11.377778 5.688889 17.066667 5.688889s11.377778-2.844444 17.066667-5.688889L1322.666667 130.844444C1348.266667 164.977778 1365.333333 210.488889 1365.333333 256v512z" p-id="16792"></path></svg>