<?xml version="1.0" standalone="no"?><!DOCTYPE svg PUBLIC "-//W3C//DTD SVG 1.1//EN" "http://www.w3.org/Graphics/SVG/1.1/DTD/svg11.dtd"><svg t="1517801633687" class="icon" style="" viewBox="0 0 1025 1024" version="1.1" xmlns="http://www.w3.org/2000/svg" p-id="14875" xmlns:xlink="http://www.w3.org/1999/xlink" width="200.1953125" height="200"><defs><style type="text/css"></style></defs><path d="M985.875692 393.767385h-157.538461a39.384615 39.384615 0 0 1 0-78.769231h27.175384L512.078769 86.646154 171.323077 314.998154h28.041846a39.384615 39.384615 0 0 1 0 78.769231h-157.538461a39.463385 39.463385 0 0 1-21.976616-72.073847l470.173539-315.076923a39.542154 39.542154 0 0 1 43.716923-0.078769l473.796923 315.076923a39.384615 39.384615 0 0 1-21.661539 72.152616z" fill="#999999" p-id="14876"></path><path d="M196.923077 315.076923a39.384615 39.384615 0 0 0-39.384615 39.384615v630.153847a39.384615 39.384615 0 0 0 78.76923 0v-630.153847a39.384615 39.384615 0 0 0-39.384615-39.384615zM827.076923 315.076923a39.384615 39.384615 0 0 0-39.384615 39.384615v630.153847a39.384615 39.384615 0 0 0 78.76923 0v-630.153847a39.384615 39.384615 0 0 0-39.384615-39.384615z" fill="#999999" p-id="14877"></path><path d="M669.538462 945.230769h-472.615385a39.384615 39.384615 0 0 0 0 78.769231h472.615385a39.384615 39.384615 0 0 0 0-78.769231z" fill="#999999" p-id="14878"></path><path d="M669.538462 551.384615a39.384615 39.384615 0 0 0-39.384616 39.384616v393.846154a39.384615 39.384615 0 0 0 78.769231 0v-393.846154a39.384615 39.384615 0 0 0-39.384615-39.384616z" fill="#999999" p-id="14879"></path><path d="M669.538462 551.384615h-315.076924a39.384615 39.384615 0 0 0 0 78.769231h315.076924a39.384615 39.384615 0 0 0 0-78.769231z" fill="#999999" p-id="14880"></path><path d="M354.461538 551.384615a39.384615 39.384615 0 0 0-39.384615 39.384616v393.846154a39.384615 39.384615 0 0 0 78.769231 0v-393.846154a39.384615 39.384615 0 0 0-39.384616-39.384616z" fill="#999999" p-id="14881"></path></svg>