<?xml version="1.0" standalone="no"?><!DOCTYPE svg PUBLIC "-//W3C//DTD SVG 1.1//EN" "http://www.w3.org/Graphics/SVG/1.1/DTD/svg11.dtd"><svg t="1517801574579" class="icon" style="" viewBox="0 0 1024 1024" version="1.1" xmlns="http://www.w3.org/2000/svg" p-id="13955" xmlns:xlink="http://www.w3.org/1999/xlink" width="200" height="200"><defs><style type="text/css"></style></defs><path d="M956.930465 404.021753 956.930465 895.006114 906.46612 895.006114 906.46612 424.278099 510.85799 264.179798 115.250884 424.278099 115.250884 895.006114 64.785515 895.006114 64.785515 404.021753 510.85799 219.142046 956.930465 404.021753 956.930465 404.021753Z" p-id="13956"></path><path d="M202.230887 851.76938 813.113989 851.76938 813.113989 893.684002 202.230887 893.684002 202.230887 851.76938Z" p-id="13957"></path><path d="M202.230887 738.875171 813.113989 738.875171 813.113989 780.789793 202.230887 780.789793 202.230887 738.875171Z" p-id="13958"></path><path d="M202.230887 625.979938 813.113989 625.979938 813.113989 667.894559 202.230887 667.894559 202.230887 625.979938Z" p-id="13959"></path><path d="M202.230887 513.085728 813.113989 513.085728 813.113989 555.00035 202.230887 555.00035 202.230887 513.085728Z" p-id="13960"></path></svg>