<?xml version="1.0" standalone="no"?><!DOCTYPE svg PUBLIC "-//W3C//DTD SVG 1.1//EN" "http://www.w3.org/Graphics/SVG/1.1/DTD/svg11.dtd"><svg t="1517800430795" class="icon" style="" viewBox="0 0 1024 1024" version="1.1" xmlns="http://www.w3.org/2000/svg" p-id="6206" xmlns:xlink="http://www.w3.org/1999/xlink" width="200" height="200"><defs><style type="text/css"></style></defs><path d="M151.466667 283.733333C102.4 283.733333 64 243.2 64 194.133333S102.4 106.666667 151.466667 106.666667s87.466667 40.533333 87.466667 87.466667S200.533333 283.733333 151.466667 283.733333z" p-id="6207"></path><path d="M151.466667 597.333333C102.4 597.333333 64 558.933333 64 509.866667s40.533333-87.466667 87.466667-87.466667 87.466667 40.533333 87.466667 87.466667S200.533333 597.333333 151.466667 597.333333z" p-id="6208"></path><path d="M151.466667 913.066667c-49.066667 0-87.466667-40.533333-87.466667-87.466667s40.533333-87.466667 87.466667-87.466667 87.466667 40.533333 87.466667 87.466667S200.533333 913.066667 151.466667 913.066667z" p-id="6209"></path><path d="M938.666667 213.333333 405.333333 213.333333c-17.066667 0-32-14.933333-32-32S388.266667 149.333333 405.333333 149.333333l533.333333 0c17.066667 0 32 14.933333 32 32S955.733333 213.333333 938.666667 213.333333z" p-id="6210"></path><path d="M938.666667 874.666667 405.333333 874.666667c-17.066667 0-32-14.933333-32-32S388.266667 810.666667 405.333333 810.666667l533.333333 0c17.066667 0 32 14.933333 32 32S955.733333 874.666667 938.666667 874.666667z" p-id="6211"></path><path d="M938.666667 554.666667 405.333333 554.666667c-17.066667 0-32-14.933333-32-32S388.266667 490.666667 405.333333 490.666667l533.333333 0c17.066667 0 32 14.933333 32 32S955.733333 554.666667 938.666667 554.666667z" p-id="6212"></path></svg>