<?xml version="1.0" standalone="no"?><!DOCTYPE svg PUBLIC "-//W3C//DTD SVG 1.1//EN" "http://www.w3.org/Graphics/SVG/1.1/DTD/svg11.dtd"><svg t="1517800356435" class="icon" style="" viewBox="0 0 1024 1024" version="1.1" xmlns="http://www.w3.org/2000/svg" p-id="5264" xmlns:xlink="http://www.w3.org/1999/xlink" width="200" height="200"><defs><style type="text/css"></style></defs><path d="M434.228217 462.881302l-40.932248 255.82655 211.794707-171.740456 25.612331-241.675248L434.228217 462.881302zM521.550005 543.381731c-22.606881 0-40.932248-18.325367-40.932248-40.932248s18.325367-40.932248 40.932248-40.932248 40.932248 18.325367 40.932248 40.932248S544.156886 543.381731 521.550005 543.381731z" p-id="5265"></path><path d="M512.008698 64.896032C264.988722 64.896032 64.727699 265.077238 64.727699 511.998977c0 246.922762 200.261023 447.104991 447.280999 447.104991 247.000534 0 447.26258-200.182228 447.26258-447.104991C959.271278 265.077238 759.009232 64.896032 512.008698 64.896032zM511.999488 877.650841c-201.943338 0-365.650841-163.707502-365.650841-365.651864 0-201.943338 163.707502-365.650841 365.650841-365.650841 201.944362 0 365.650841 163.707502 365.650841 365.650841C877.650329 713.944362 713.94385 877.650841 511.999488 877.650841z" p-id="5266"></path></svg>