<?xml version="1.0" standalone="no"?><!DOCTYPE svg PUBLIC "-//W3C//DTD SVG 1.1//EN" "http://www.w3.org/Graphics/SVG/1.1/DTD/svg11.dtd"><svg t="1517800855203" class="icon" style="" viewBox="0 0 1029 1024" version="1.1" xmlns="http://www.w3.org/2000/svg" p-id="9862" xmlns:xlink="http://www.w3.org/1999/xlink" width="200.9765625" height="200"><defs><style type="text/css"></style></defs><path d="M977.284291 371.2l-518.4 512c-83.2 83.2-224 83.2-313.6 0-83.2-83.2-83.2-224 0-307.2l467.2-460.8c57.6-57.6 153.6-57.6 211.2 0 57.6 57.6 57.6 147.2 0 204.8l-467.2 460.8c-25.6 25.6-76.8 25.6-102.4 0-25.6-25.6-25.6-76.8 0-102.4l416-409.6L612.484291 217.6 196.484291 627.2c-57.6 57.6-57.6 147.2 0 204.8s153.6 57.6 211.2 0l467.2-460.8c83.2-83.2 83.2-224 0-307.2C785.284291-19.2 644.484291-19.2 561.284291 64L62.084291 550.4l0 0c-89.6 115.2-83.2 281.6 25.6 384C196.484291 1043.2 362.884291 1049.6 478.084291 960l0 0L1028.484291 422.4 977.284291 371.2 977.284291 371.2 977.284291 371.2z" p-id="9863"></path></svg>