<?xml version="1.0" standalone="no"?><!DOCTYPE svg PUBLIC "-//W3C//DTD SVG 1.1//EN" "http://www.w3.org/Graphics/SVG/1.1/DTD/svg11.dtd"><svg class="icon" width="200px" height="200.00px" viewBox="0 0 1024 1024" version="1.1" xmlns="http://www.w3.org/2000/svg"><path fill="#BFCBD9" d="M923.539984 315.692009c-22.672372-49.083905-55.075363-93.114724-96.306416-130.868583C786.194896 147.246599 738.452545 117.763101 685.33272 97.189529c-54.847166-21.240767-113.067148-32.011064-173.045171-32.011064S394.089543 75.948763 339.243401 97.189529c-53.119825 20.572548-100.862175 50.057069-141.900847 87.633896-41.231053 37.753859-73.634044 81.783655-96.30744 130.868583-23.574928 51.034327-35.527145 105.259322-35.527145 161.169703 0 93.53735 34.497699 184.048783 97.506754 256.776178l-55.540967 187.014324c-3.454682 11.630898 0.265036 24.205285 9.492188 32.084743 5.672186 4.844332 12.769838 7.355525 19.942191 7.355525 4.493338 0 9.016351-0.985444 13.233396-3.001357l201.082738-96.106872c51.318806 18.295692 105.431238 27.560706 161.064302 27.560706 59.977 0 118.198006-10.770298 173.045171-32.011064 53.119825-20.572548 100.862175-50.057069 141.900847-87.633896 41.231053-37.754882 73.634044-81.784678 96.306416-130.868583 23.574928-51.034327 35.528168-105.259322 35.528168-161.169703C959.068152 420.951331 947.114912 366.726336 923.539984 315.692009zM785.7692 723.615629c-35.384905 32.400944-76.638471 57.857732-122.610502 75.661214-47.746444 18.492166-98.507548 27.867698-150.871149 27.867698-52.568263 0-103.514585-9.449209-151.424758-28.085662-7.900947-3.074012-16.7198-2.743484-24.366967 0.912789l-150.494573 71.928193 40.780799-137.312342c3.115967-10.492982 0.410346-21.851681-7.102768-29.811979-29.40061-31.150464-52.338019-66.318428-68.172659-104.523565-16.32378-39.382962-24.600281-80.898495-24.600281-123.392308 0-93.049233 39.740096-180.682106 111.899556-246.75494 35.385928-32.400944 76.638471-57.857732 122.611525-75.662237 47.746444-18.491143 98.507548-27.867698 150.871149-27.867698s103.123682 9.376555 150.871149 27.867698c45.973054 17.804505 87.225597 43.261293 122.610502 75.662237 72.160483 66.072835 111.900579 153.705708 111.900579 246.75494S857.929684 657.542794 785.7692 723.615629zM385.518331 413.658228c-16.954137 0-30.699186 13.745049-30.699186 30.699186L354.819145 531.846c0 16.954137 13.745049 30.699186 30.699186 30.699186s30.699186-13.745049 30.699186-30.699186l0-87.488587C416.217517 427.403277 402.473491 413.658228 385.518331 413.658228zM640.47507 413.658228c-16.954137 0-30.699186 13.745049-30.699186 30.699186L609.775884 531.846c0 16.954137 13.745049 30.699186 30.699186 30.699186s30.699186-13.745049 30.699186-30.699186l0-87.488587C671.174256 427.403277 657.429207 413.658228 640.47507 413.658228z" /></svg>