<?xml version="1.0" standalone="no"?><!DOCTYPE svg PUBLIC "-//W3C//DTD SVG 1.1//EN" "http://www.w3.org/Graphics/SVG/1.1/DTD/svg11.dtd"><svg t="1517800810037" class="icon" style="" viewBox="0 0 1025 1024" version="1.1" xmlns="http://www.w3.org/2000/svg" p-id="8413" xmlns:xlink="http://www.w3.org/1999/xlink" width="200.1953125" height="200"><defs><style type="text/css"></style></defs><path d="M150.78749 149.272569C228.481045 71.579015 328.672732 21.183196 439.36355 5.284514c135.288776-19.398391 270.177585 14.998756 379.568511 96.991953 109.490916 81.993197 180.385034 201.683268 199.883417 336.972044 40.096674 279.476814-154.587175 539.355254-433.963997 579.451928-117.090286 16.798606-237.180323-7.699362-338.171944-68.994276-17.298565-10.499129-22.798108-32.997262-12.298979-50.195835 10.599121-17.098582 32.997262-22.798108 50.195835-12.298979 86.492824 52.595637 189.384288 73.593895 289.875952 59.195089 239.380141-34.297155 406.266296-257.178664 371.869149-496.658797-16.698614-115.990377-77.493571-218.581866-171.28579-288.776042C681.243482 90.67743 565.653072 61.179878 449.762687 77.7785 210.082571 112.175647 43.296408 334.957164 77.693554 574.537289c8.999254 62.694798 30.797445 121.289937 64.794625 174.085558 10.899096 16.99859 5.899511 39.696706-10.899096 50.495811-16.99859 10.899096-39.596715 5.999502-50.495811-10.899096-39.696706-61.794874-65.0946-130.089207-75.69372-203.283136-19.398391-135.288776 14.998756-270.177585 97.091945-379.568511C117.29027 185.269582 133.488926 166.671125 150.78749 149.272569L150.78749 149.272569zM687.842935 472.945717l-128.989299 0 31.297404-253.978929L336.17211 551.139229l128.989299 0-31.297404 253.978929L687.842935 472.945717z" p-id="8414"></path></svg>